# xmcd
#
# Track frame offsets:
#	150
#	66437
#	94778
#	110035
#	123610
#	151244
#	190431
#
# Disc length: 2911 seconds
#
# Revision: 1
# Processed by: cddbd v1.5.2PL0 Copyright (c) Steve Scherf et al.
# Submitted via: audiograbber 1.83.01
#
DISCID=640b5d07
DTITLE=Grateful Dead - 77-02-26 Swing Theatre, San Bernardino CA
DYEAR=1900
DGENRE=
TTITLE0=Playing In The Band
TTITLE1=The Wheel
TTITLE2=Playing In The Band
TTITLE3=Tuning
TTITLE4=Samson and Delilah
TTITLE5=Tennessee Jed
TTITLE6=The Music Never Stopped
EXTD=
EXTT0=
EXTT1=
EXTT2=
EXTT3=
EXTT4=
EXTT5=
EXTT6=
PLAYORDER=
